<?xml version="1.0" encoding="utf-8"?>
<!-- Generator: Adobe Illustrator 24.0.1, SVG Export Plug-In . SVG Version: 6.00 Build 0)  -->
<svg version="1.1" id="Layer_1" xmlns="http://www.w3.org/2000/svg" xmlns:xlink="http://www.w3.org/1999/xlink" x="0px" y="0px"
	 viewBox="0 0 385.61 221.38" style="enable-background:new 0 0 385.61 221.38;" xml:space="preserve">
<g>
	<g>
		<g>
			<g>
				<path d="M229.54,20.76h-4.91V8.38c0-1.01-0.82-1.83-1.83-1.83s-1.83,0.82-1.83,1.83v12.38h-4.91V8.38
					c0-3.72,3.02-6.74,6.74-6.74c3.72,0,6.74,3.02,6.74,6.74V20.76z"/>
			</g>
			<g>
				<path d="M227.09,23.22c-1.35,0-2.45-1.1-2.45-2.45V7.58c0-3.85,3.14-6.99,6.99-6.99s6.99,3.14,6.99,6.99v13.04
					c0,1.35-1.1,2.45-2.45,2.45c-1.35,0-2.45-1.1-2.45-2.45V7.58c0-1.15-0.94-2.09-2.09-2.09s-2.09,0.94-2.09,2.09v13.18
					C229.54,22.12,228.44,23.22,227.09,23.22z"/>
			</g>
			<g>
				<path d="M225.07,128.53c-1.35,0-2.45-1.1-2.45-2.45V52.16c-6.1-5.25-9.06-10.58-9.06-16.27V24.72c0-3.65,2.75-6.4,6.4-6.4h13.23
					c3.53,0,6.4,2.87,6.4,6.4s-2.87,6.4-6.4,6.4h-4.6l0.2,3.5l7.44,4.11c1.19,0.66,1.62,2.15,0.96,3.33
					c-0.66,1.19-2.15,1.62-3.33,0.96l-8.62-4.77c-0.74-0.41-1.22-1.17-1.26-2.01l-0.42-7.44c-0.04-0.67,0.2-1.33,0.67-1.82
					c0.46-0.49,1.11-0.77,1.78-0.77h7.2c0.83,0,1.5-0.67,1.5-1.5c0-0.83-0.67-1.5-1.5-1.5h-13.23c-0.35,0-1.5,0.11-1.5,1.5v11.17
					c0,4.4,2.67,8.73,8.16,13.23c0.57,0.47,0.9,1.16,0.9,1.9v75.06C227.52,127.43,226.42,128.53,225.07,128.53z"/>
			</g>
			<g>
				<path d="M250.42,27.76h-0.7c-3.66,0-6.64-2.98-6.64-6.64V10.64c0-3.66,2.98-6.64,6.64-6.64h0.7c3.66,0,6.64,2.98,6.64,6.64
					v10.47C257.06,24.78,254.08,27.76,250.42,27.76z M249.72,8.9c-0.96,0-1.74,0.78-1.74,1.74v10.47c0,0.96,0.78,1.74,1.74,1.74h0.7
					c0.96,0,1.74-0.78,1.74-1.74V10.64c0-0.96-0.78-1.74-1.74-1.74H249.72z"/>
			</g>
			<g>
				<path d="M241.21,27.76h-0.72c-3.74,0-6.77-3.04-6.77-6.77V6.77c0-3.74,3.04-6.77,6.77-6.77h0.72c3.74,0,6.77,3.04,6.77,6.77
					v14.21C247.98,24.72,244.94,27.76,241.21,27.76z M240.49,4.91c-1.03,0-1.87,0.84-1.87,1.87v14.21c0,1.03,0.84,1.87,1.87,1.87
					h0.72c1.03,0,1.87-0.84,1.87-1.87V6.77c0-1.03-0.84-1.87-1.87-1.87H240.49z"/>
			</g>
			<g>
				<path d="M238.47,55.77h-3.72c-1.35,0-2.45-1.1-2.45-2.45c0-1.35,1.1-2.45,2.45-2.45h3.72c2.43,0,4.64-0.54,6.58-1.6
					c4.31-2.35,7.1-7.26,7.1-12.52V17.33c0-1.35,1.1-2.45,2.45-2.45s2.45,1.1,2.45,2.45v19.42c0,7.02-3.79,13.63-9.66,16.83
					C244.73,55.03,241.72,55.77,238.47,55.77z"/>
			</g>
			<g>
				<path d="M246.58,128.53c-1.35,0-2.45-1.1-2.45-2.45V51.42c0-1.35,1.1-2.45,2.45-2.45c1.35,0,2.45,1.1,2.45,2.45v74.66
					C249.03,127.43,247.93,128.53,246.58,128.53z"/>
			</g>
		</g>
		<g>
			<g>
				<path d="M190.94,66.45h-4.91V54.07c0-1.01-0.82-1.83-1.83-1.83s-1.83,0.82-1.83,1.83v12.38h-4.91V54.07
					c0-3.72,3.02-6.74,6.74-6.74c3.72,0,6.74,3.02,6.74,6.74V66.45z"/>
			</g>
			<g>
				<path d="M188.49,68.9c-1.35,0-2.45-1.1-2.45-2.45V53.27c0-3.85,3.14-6.99,6.99-6.99s6.99,3.14,6.99,6.99v13.04
					c0,1.35-1.1,2.45-2.45,2.45c-1.35,0-2.45-1.1-2.45-2.45V53.27c0-1.15-0.94-2.09-2.09-2.09s-2.09,0.94-2.09,2.09v13.18
					C190.94,67.81,189.85,68.9,188.49,68.9z"/>
			</g>
			<g>
				<path d="M186.47,128.53c-1.35,0-2.45-1.1-2.45-2.45V97.85c-6.1-5.25-9.06-10.59-9.06-16.27V70.4c0-3.65,2.75-6.4,6.4-6.4h13.23
					c3.53,0,6.4,2.87,6.4,6.4s-2.87,6.4-6.4,6.4h-4.6l0.2,3.5l7.44,4.11c1.19,0.66,1.62,2.15,0.96,3.33
					c-0.66,1.19-2.15,1.62-3.33,0.96l-8.62-4.77c-0.74-0.41-1.22-1.17-1.26-2.01l-0.42-7.44c-0.04-0.67,0.2-1.33,0.67-1.82
					s1.11-0.77,1.78-0.77h7.2c0.83,0,1.5-0.67,1.5-1.5s-0.67-1.5-1.5-1.5h-13.23c-0.35,0-1.5,0.11-1.5,1.5v11.17
					c0,4.4,2.67,8.73,8.16,13.23c0.57,0.47,0.9,1.16,0.9,1.9v29.38C188.92,127.43,187.83,128.53,186.47,128.53z"/>
			</g>
			<g>
				<path d="M211.82,73.44h-0.7c-3.66,0-6.64-2.98-6.64-6.64V56.33c0-3.66,2.98-6.64,6.64-6.64h0.7c3.66,0,6.64,2.98,6.64,6.64V66.8
					C218.46,70.46,215.48,73.44,211.82,73.44z M211.12,54.59c-0.96,0-1.74,0.78-1.74,1.74V66.8c0,0.96,0.78,1.74,1.74,1.74h0.7
					c0.96,0,1.74-0.78,1.74-1.74V56.33c0-0.96-0.78-1.74-1.74-1.74H211.12z"/>
			</g>
			<g>
				<path d="M202.61,73.44h-0.72c-3.74,0-6.77-3.04-6.77-6.77V52.46c0-3.74,3.04-6.77,6.77-6.77h0.72c3.74,0,6.77,3.04,6.77,6.77
					v14.21C209.38,70.4,206.34,73.44,202.61,73.44z M201.89,50.59c-1.03,0-1.87,0.84-1.87,1.87v14.21c0,1.03,0.84,1.87,1.87,1.87
					h0.72c1.03,0,1.87-0.84,1.87-1.87V52.46c0-1.03-0.84-1.87-1.87-1.87H201.89z"/>
			</g>
			<g>
				<path d="M199.87,101.45h-3.72c-1.35,0-2.45-1.1-2.45-2.45s1.1-2.45,2.45-2.45h3.72c2.43,0,4.64-0.54,6.58-1.6
					c4.31-2.35,7.1-7.26,7.1-12.52V63.02c0-1.35,1.1-2.45,2.45-2.45s2.45,1.1,2.45,2.45v19.42c0,7.02-3.79,13.63-9.66,16.83
					C206.13,100.72,203.13,101.45,199.87,101.45z"/>
			</g>
			<g>
				<path d="M207.98,128.53c-1.35,0-2.45-1.1-2.45-2.45V97.11c0-1.35,1.1-2.45,2.45-2.45c1.35,0,2.45,1.1,2.45,2.45v28.97
					C210.43,127.43,209.33,128.53,207.98,128.53z"/>
			</g>
		</g>
		<g>
			<g>
				<path d="M144.54,66.45h-4.91V54.07c0-1.01-0.82-1.83-1.83-1.83c-1.01,0-1.83,0.82-1.83,1.83v12.38h-4.91V54.07
					c0-3.72,3.02-6.74,6.74-6.74c3.72,0,6.74,3.02,6.74,6.74V66.45z"/>
			</g>
			<g>
				<path d="M142.08,68.9c-1.35,0-2.45-1.1-2.45-2.45V53.27c0-3.85,3.14-6.99,6.99-6.99c3.85,0,6.99,3.14,6.99,6.99v13.04
					c0,1.35-1.1,2.45-2.45,2.45s-2.45-1.1-2.45-2.45V53.27c0-1.15-0.94-2.09-2.09-2.09s-2.09,0.94-2.09,2.09v13.18
					C144.54,67.81,143.44,68.9,142.08,68.9z"/>
			</g>
			<g>
				<path d="M140.06,128.53c-1.35,0-2.45-1.1-2.45-2.45V97.85c-6.1-5.25-9.06-10.59-9.06-16.27V70.4c0-3.65,2.75-6.4,6.4-6.4h13.23
					c3.53,0,6.4,2.87,6.4,6.4s-2.87,6.4-6.4,6.4h-4.6l0.2,3.5l7.44,4.11c1.19,0.66,1.62,2.15,0.96,3.33
					c-0.66,1.19-2.15,1.62-3.33,0.96l-8.62-4.77c-0.74-0.41-1.22-1.17-1.26-2.01l-0.42-7.44c-0.04-0.67,0.2-1.33,0.67-1.82
					c0.46-0.49,1.11-0.77,1.78-0.77h7.2c0.83,0,1.5-0.67,1.5-1.5s-0.67-1.5-1.5-1.5h-13.23c-0.35,0-1.5,0.11-1.5,1.5v11.17
					c0,4.4,2.67,8.73,8.16,13.23c0.57,0.47,0.9,1.16,0.9,1.9v29.38C142.52,127.43,141.42,128.53,140.06,128.53z"/>
			</g>
			<g>
				<path d="M165.41,73.44h-0.7c-3.66,0-6.64-2.98-6.64-6.64V56.33c0-3.66,2.98-6.64,6.64-6.64h0.7c3.66,0,6.64,2.98,6.64,6.64V66.8
					C172.05,70.46,169.07,73.44,165.41,73.44z M164.71,54.59c-0.96,0-1.74,0.78-1.74,1.74V66.8c0,0.96,0.78,1.74,1.74,1.74h0.7
					c0.96,0,1.74-0.78,1.74-1.74V56.33c0-0.96-0.78-1.74-1.74-1.74H164.71z"/>
			</g>
			<g>
				<path d="M156.2,73.44h-0.72c-3.74,0-6.77-3.04-6.77-6.77V52.46c0-3.74,3.04-6.77,6.77-6.77h0.72c3.74,0,6.77,3.04,6.77,6.77
					v14.21C162.98,70.4,159.94,73.44,156.2,73.44z M155.48,50.59c-1.03,0-1.87,0.84-1.87,1.87v14.21c0,1.03,0.84,1.87,1.87,1.87
					h0.72c1.03,0,1.87-0.84,1.87-1.87V52.46c0-1.03-0.84-1.87-1.87-1.87H155.48z"/>
			</g>
			<g>
				<path d="M153.46,101.45h-3.72c-1.35,0-2.45-1.1-2.45-2.45s1.1-2.45,2.45-2.45h3.72c2.43,0,4.64-0.54,6.58-1.6
					c4.31-2.35,7.1-7.26,7.1-12.52V63.02c0-1.35,1.1-2.45,2.45-2.45c1.35,0,2.45,1.1,2.45,2.45v19.42c0,7.02-3.79,13.63-9.66,16.83
					C159.72,100.72,156.72,101.45,153.46,101.45z"/>
			</g>
			<g>
				<path d="M161.57,128.53c-1.35,0-2.45-1.1-2.45-2.45V97.11c0-1.35,1.1-2.45,2.45-2.45s2.45,1.1,2.45,2.45v28.97
					C164.02,127.43,162.93,128.53,161.57,128.53z"/>
			</g>
		</g>
	</g>
	<g>
		<path d="M0,220.25c0.2-3.26,0.41-9.28,0.41-14.88v-57.49H15.9v28.44h0.2c2.96-4.28,8.15-7.03,15.09-7.03
			c11.93,0,20.69,9.89,20.59,25.18c0,17.94-11.42,26.91-22.83,26.91c-5.81,0-11.42-2.14-14.98-8.05h-0.2l-0.61,6.93H0z M15.9,199.05
			c0,1.02,0.1,1.94,0.31,2.75c1.02,4.18,4.59,7.34,9.07,7.34c6.63,0,10.7-5.1,10.7-14.07c0-7.75-3.47-13.86-10.7-13.86
			c-4.18,0-8.05,3.16-9.07,7.65c-0.2,0.92-0.31,1.83-0.31,2.85V199.05z"/>
		<path d="M110.7,147.88v57.49c0,5.61,0.2,11.52,0.41,14.88H97.34l-0.71-7.34h-0.2c-3.16,5.61-9.17,8.46-15.6,8.46
			c-11.82,0-21.3-10.09-21.3-25.59c-0.1-16.82,10.4-26.5,22.32-26.5c6.12,0,10.91,2.14,13.15,5.61h0.2v-27.01H110.7z M95.2,191.51
			c0-0.82-0.1-1.94-0.2-2.75c-0.92-4.18-4.28-7.65-9.07-7.65c-7.03,0-10.7,6.32-10.7,14.17c0,8.46,4.18,13.76,10.6,13.76
			c4.49,0,8.05-3.06,8.97-7.44c0.31-1.12,0.41-2.24,0.41-3.57V191.51z"/>
		<path d="M123.85,186.31c0-6.22-0.2-11.52-0.41-15.9h13.46l0.71,6.83h0.31c2.04-3.16,7.14-7.95,15.39-7.95
			c10.19,0,17.84,6.73,17.84,21.41v29.56h-15.49v-27.62c0-6.42-2.24-10.8-7.85-10.8c-4.28,0-6.83,2.96-7.85,5.81
			c-0.41,0.92-0.61,2.45-0.61,3.87v28.75h-15.49V186.31z"/>
		<path d="M212.63,220.25l-0.92-4.99h-0.31c-3.26,3.98-8.36,6.12-14.27,6.12c-10.09,0-16.11-7.34-16.11-15.29
			c0-12.95,11.62-19.16,29.26-19.06v-0.71c0-2.65-1.43-6.42-9.07-6.42c-5.1,0-10.5,1.73-13.76,3.77l-2.85-9.99
			c3.47-1.94,10.3-4.38,19.37-4.38c16.62,0,21.92,9.79,21.92,21.51v17.33c0,4.79,0.2,9.38,0.71,12.13H212.63z M210.79,196.71
			c-8.15-0.1-14.47,1.83-14.47,7.85c0,3.98,2.65,5.91,6.12,5.91c3.87,0,7.03-2.55,8.05-5.71c0.2-0.82,0.31-1.73,0.31-2.65V196.71z"
			/>
		<path d="M267.16,220.25l-0.92-4.99h-0.31c-3.26,3.98-8.36,6.12-14.27,6.12c-10.09,0-16.11-7.34-16.11-15.29
			c0-12.95,11.62-19.16,29.26-19.06v-0.71c0-2.65-1.43-6.42-9.07-6.42c-5.1,0-10.5,1.73-13.76,3.77l-2.85-9.99
			c3.47-1.94,10.3-4.38,19.37-4.38c16.62,0,21.92,9.79,21.92,21.51v17.33c0,4.79,0.2,9.38,0.71,12.13H267.16z M265.33,196.71
			c-8.15-0.1-14.47,1.83-14.47,7.85c0,3.98,2.65,5.91,6.12,5.91c3.87,0,7.03-2.55,8.05-5.71c0.2-0.82,0.31-1.73,0.31-2.65V196.71z"
			/>
		<path d="M293.26,206.7c2.85,1.73,8.77,3.77,13.35,3.77c4.69,0,6.63-1.63,6.63-4.18c0-2.55-1.53-3.77-7.34-5.71
			c-10.3-3.47-14.27-9.07-14.17-14.98c0-9.28,7.95-16.31,20.28-16.31c5.81,0,11.01,1.33,14.07,2.85l-2.75,10.7
			c-2.24-1.22-6.52-2.85-10.81-2.85c-3.77,0-5.91,1.53-5.91,4.08c0,2.34,1.94,3.57,8.05,5.71c9.48,3.26,13.46,8.05,13.56,15.39
			c0,9.28-7.34,16.11-21.61,16.11c-6.52,0-12.33-1.43-16.11-3.47L293.26,206.7z"/>
		<path d="M338.31,147.88h15.49v28.44h0.2c1.63-2.14,3.67-3.77,6.12-5.1c2.24-1.22,5.2-1.94,8.05-1.94
			c9.89,0,17.43,6.83,17.43,21.81v29.15h-15.49v-27.42c0-6.52-2.24-11.01-8.05-11.01c-4.08,0-6.63,2.65-7.75,5.4
			c-0.41,1.02-0.51,2.34-0.51,3.47v29.56h-15.49V147.88z"/>
	</g>
</g>
</svg>
